<svg xmlns="http://www.w3.org/2000/svg" xmlns:xlink="http://www.w3.org/1999/xlink" viewBox="0,0,256,256" width="50px" height="50px" fill-rule="nonzero"><g fill="#b7b7b7" fill-rule="nonzero" stroke="none" stroke-width="1" stroke-linecap="butt" stroke-linejoin="miter" stroke-miterlimit="10" stroke-dasharray="" stroke-dashoffset="0" font-family="none" font-weight="none" font-size="none" text-anchor="none" style="mix-blend-mode: normal"><g transform="scale(5.12,5.12)"><path d="M25.69727,0.99414c-0.23159,0.00091 -0.46392,0.014 -0.69531,0.04102c-0.61706,0.07205 -1.23014,0.23679 -1.81641,0.5l-14.53906,6.52734c-0.24898,0.09441 -0.45002,0.28421 -0.55859,0.52734c-0.00835,0.01799 -0.01617,0.03623 -0.02344,0.05469l-6.5293,14.54102c-1.05261,2.34574 -0.54501,5.10657 1.27344,6.92383l6.93945,6.9375c0.00196,0.00196 0.0039,0.0039 0.00586,0.00586l10.63672,10.6543c0.18751,0.18754 0.44183,0.29292 0.70703,0.29297h16.90234c0.55226,-0.00006 0.99994,-0.44774 1,-1v-8h8c0.55226,-0.00006 0.99994,-0.44774 1,-1v-16.90234c-0.00005,-0.2652 -0.10543,-0.51952 -0.29297,-0.70703l-10.6543,-10.63672c-0.00196,-0.00196 -0.0039,-0.0039 -0.00586,-0.00586l-6.9375,-6.93945c-1.19268,-1.19346 -2.79096,-1.82086 -4.41211,-1.81445zM25.86328,2.99219c1.04347,0.03448 2.06041,0.45834 2.83203,1.23047l3.77539,3.77734h-18.80273l10.33594,-4.64062c0.59734,-0.26818 1.23329,-0.38788 1.85938,-0.36719zM11.41211,10h21.40039c1.06035,0 2.07653,0.42108 2.82617,1.16992l0.6582,0.6582l8.36914,8.37109l0.00781,-0.00781l1.32617,1.32227v15.48633h-7.72461zM10,11.41797l25.45508,25.58203h-22.92383l-1.06641,-1.06641l-0.29492,-0.29492c-0.74884,-0.74964 -1.16992,-1.76583 -1.16992,-2.82617zM8,13.66797v18.80273l-3.77734,-3.77539c-1.23555,-1.23475 -1.57672,-3.09714 -0.86133,-4.69141h-0.00195zM14.5332,39h22.4668v7h-15.48633l-1.32422,-1.32617l0.00977,-0.00977z"></path></g></g></svg>